<svg width="63" height="73" viewBox="0 0 63 73" fill="none" xmlns="http://www.w3.org/2000/svg">
<path fill-rule="evenodd" clip-rule="evenodd" d="M22.1856 61.1136L6.08643 73L6.08643 49.4155C2.52021 44.4022 0.427112 38.295 0.427112 31.7053C0.427114 14.6587 14.4345 0.839695 31.7136 0.839696C48.9926 0.839698 63 14.6587 63 31.7053C63 36.5231 61.8811 41.0832 59.8857 45.1463L58.622 64.6779L48.5226 57.7424C43.6675 60.7994 37.9002 62.571 31.7136 62.571C28.3912 62.571 25.1897 62.0601 22.1856 61.1136Z" fill="#D62D2A"/>
<path d="M20.288 23.0671C18.6368 23.0671 17.2982 24.3877 17.2982 26.0167C17.2982 27.6457 18.6368 28.9663 20.288 28.9663C21.9392 28.9663 23.2778 27.6457 23.2778 26.0167C23.2778 24.3877 21.9392 23.0671 20.288 23.0671Z" fill="#880D0C"/>
<path d="M7.04753 25.174C5.39629 25.174 4.0577 26.4946 4.0577 28.1236C4.0577 29.7527 5.39629 31.0732 7.04753 31.0732C8.69876 31.0732 10.0374 29.7527 10.0374 28.1236C10.0374 26.4946 8.69876 25.174 7.04753 25.174Z" fill="#880D0C"/>
<path d="M18.3539 32.2647L29.9287 35.2326C30.4995 35.3789 31.0824 35.0411 31.2308 34.478L31.3382 34.0702C31.4865 33.5071 31.1441 32.932 30.5733 32.7856L18.9986 29.8177C18.4278 29.6714 17.8449 30.0092 17.6965 30.5723L17.5891 30.9801C17.4407 31.5432 17.7832 32.1183 18.3539 32.2647Z" fill="#880D0C"/>
<path d="M10.7773 33.2765L4.79606 39.1772C4.37906 39.5886 3.70297 39.5886 3.28597 39.1772L2.98395 38.8793C2.56695 38.4679 2.56695 37.8009 2.98395 37.3895L8.96516 31.4887C9.38216 31.0773 10.0583 31.0773 10.4753 31.4887L10.7773 31.7867C11.1943 32.1981 11.1943 32.8651 10.7773 33.2765Z" fill="#880D0C"/>
<path d="M13.3525 14.0437C9.50328 15.0292 6.7099 17.0713 7.1133 18.6049C7.51671 20.1385 10.9641 20.5828 14.8133 19.5973C18.6626 18.6119 21.4559 16.5698 21.0525 15.0362C20.6491 13.5026 17.2017 13.0583 13.3525 14.0437Z" fill="#880D0C"/>
<path d="M0.178788 18.4572L26.9521 22.4351L28.1897 14.328L1.41637 10.3501L0.178788 18.4572Z" fill="black"/>
<path d="M17.3808 18.116L17.7379 15.443L18.2961 15.5155L17.9391 18.1885L17.3808 18.116ZM16.454 16.8335L16.5114 16.404L17.7432 16.5643L17.686 16.9939L16.454 16.8335ZM16.1712 17.9586L16.2289 17.5271L17.591 17.7043L17.5333 18.1358L16.1712 17.9586ZM15.6209 16.6224L15.0554 16.8871C14.9717 16.9273 14.9138 16.9688 14.8815 17.012C14.8493 17.0552 14.8292 17.1053 14.8215 17.1629C14.8138 17.2206 14.8286 17.2766 14.8653 17.3312C14.902 17.387 14.9595 17.4199 15.0377 17.4302C15.0936 17.4374 15.1423 17.4306 15.1842 17.41C15.226 17.3906 15.2595 17.3613 15.285 17.3221C15.3091 17.2829 15.3247 17.2376 15.3315 17.1862C15.339 17.1312 15.3315 17.0731 15.3095 17.0116C15.2871 16.9515 15.2548 16.8862 15.2126 16.8161C15.1701 16.747 15.1227 16.6717 15.0703 16.5902L13.9882 14.9553L14.5969 15.0343L15.4799 16.3595C15.5536 16.4787 15.6173 16.5873 15.6711 16.685C15.7247 16.7842 15.7644 16.8791 15.7902 16.9696C15.8161 17.06 15.8229 17.1506 15.8107 17.2412C15.7922 17.3807 15.7454 17.4985 15.6706 17.5948C15.5959 17.6921 15.4994 17.7623 15.3813 17.8054C15.263 17.8499 15.1295 17.8623 14.9806 17.843C14.8403 17.8248 14.7227 17.7802 14.6274 17.7092C14.5319 17.6396 14.4625 17.5545 14.4192 17.4542C14.3746 17.3539 14.3596 17.248 14.3746 17.1365C14.3857 17.0533 14.4115 16.9783 14.4519 16.9113C14.4922 16.8456 14.5437 16.7863 14.6063 16.7335C14.6688 16.6816 14.7387 16.6355 14.8162 16.5944L15.4654 16.255C15.5169 16.2192 15.5572 16.1827 15.5861 16.1454C15.6151 16.1082 15.6363 16.0717 15.6499 16.0361C15.6634 16.0018 15.6724 15.968 15.6766 15.935C15.6862 15.864 15.6792 15.7984 15.6557 15.738C15.6322 15.6777 15.5946 15.628 15.5432 15.5888C15.4915 15.5498 15.4285 15.5254 15.3541 15.5157C15.2523 15.5024 15.1508 15.5117 15.0494 15.5433C14.948 15.5749 14.854 15.6269 14.7673 15.699C14.6806 15.7723 14.6071 15.8631 14.5473 15.9712C14.4875 16.0791 14.4484 16.2017 14.4301 16.3389L13.976 16.2796C13.9942 16.1427 14.0254 16.014 14.0692 15.8941C14.1127 15.7751 14.1721 15.667 14.2468 15.5696C14.3216 15.4736 14.4147 15.3916 14.526 15.324C14.5341 15.3189 14.5458 15.3109 14.5612 15.3006C14.5751 15.2911 14.5868 15.2839 14.5962 15.2789C14.728 15.2003 14.8615 15.1459 14.9967 15.1162C15.1316 15.0878 15.2788 15.0838 15.4374 15.1044C15.6185 15.128 15.7712 15.1809 15.8953 15.2631C16.0181 15.345 16.1078 15.4476 16.1646 15.5707C16.2201 15.6937 16.2381 15.8288 16.2184 15.9756C16.2041 16.0833 16.1704 16.1741 16.1176 16.2483C16.0634 16.3233 15.994 16.3903 15.909 16.449C15.8242 16.5076 15.7281 16.5656 15.6209 16.6224ZM12.7878 17.0666L13.2512 16.2209L13.6754 16.2761L12.9407 17.5385L12.6355 17.4987L12.7878 17.0666ZM12.5943 16.1355L12.8196 17.0706L12.8532 17.5271L12.548 17.4873L12.1719 16.0805L12.5943 16.1355ZM11.0964 17.2985L11.4059 15.4504L11.8526 15.5085L11.6679 17.3729L11.0964 17.2985ZM12.0075 14.9441C11.997 15.0225 11.9611 15.0838 11.8996 15.128C11.8368 15.1733 11.7602 15.1902 11.6696 15.1784C11.5778 15.1666 11.5079 15.1308 11.4605 15.0709C11.4127 15.0124 11.3941 14.9441 11.4046 14.8657C11.4148 14.7899 11.4507 14.7292 11.5122 14.6835C11.5739 14.638 11.6506 14.6213 11.7424 14.6331C11.833 14.6449 11.9026 14.6807 11.9515 14.7408C11.9989 14.8004 12.0177 14.8683 12.0075 14.9441ZM9.14064 17.0442L8.58432 16.9718L8.8203 15.2058C8.84785 15.0001 8.91555 14.8326 9.02382 14.7035C9.1306 14.5743 9.26707 14.4844 9.43279 14.4336C9.59744 14.3828 9.78068 14.3706 9.98292 14.3969C10.1852 14.4233 10.3603 14.4821 10.5085 14.5735C10.6552 14.6649 10.7639 14.7867 10.8344 14.939C10.9036 15.0914 10.9245 15.2702 10.8972 15.4759L10.661 17.2419L10.1027 17.1694L10.3389 15.4032C10.3549 15.2833 10.3487 15.1828 10.3203 15.1019C10.2922 15.021 10.2443 14.9582 10.177 14.9133C10.1087 14.8683 10.0248 14.8394 9.92547 14.8265C9.82381 14.8133 9.73519 14.8198 9.6598 14.8461C9.58313 14.8723 9.52099 14.9207 9.47379 14.9919C9.4251 15.0627 9.39285 15.1582 9.37684 15.278L9.14064 17.0442Z" fill="white"/>
</svg>
