<svg width="131" height="148" viewBox="0 0 131 148" fill="none" xmlns="http://www.w3.org/2000/svg">
<path fill-rule="evenodd" clip-rule="evenodd" d="M85.4473 24.2628L119.152 0V48.1413C126.618 58.3746 131 70.8407 131 84.2917C131 119.088 101.675 147.295 65.5 147.295C29.3254 147.295 0 119.088 0 84.2917C0 74.4575 2.34244 65.1493 6.51991 56.8556L9.16553 16.9874L30.3092 31.1441C40.4736 24.9041 52.548 21.2879 65.5 21.2879C72.4555 21.2879 79.158 22.3308 85.4473 24.2628Z" fill="#FE423F"/>
<path d="M89.4198 101.924C92.8768 101.924 95.6792 99.2284 95.6792 95.9032C95.6792 92.5779 92.8768 89.8823 89.4198 89.8823C85.9628 89.8823 83.1604 92.5779 83.1604 95.9032C83.1604 99.2284 85.9628 101.924 89.4198 101.924Z" fill="#E21716"/>
<path d="M117.14 97.6237C120.597 97.6237 123.399 94.9281 123.399 91.6029C123.399 88.2776 120.597 85.582 117.14 85.582C113.683 85.582 110.881 88.2776 110.881 91.6029C110.881 94.9281 113.683 97.6237 117.14 97.6237Z" fill="#E21716"/>
<path d="M93.4694 83.1498L69.237 77.0917C68.042 76.793 66.8216 77.4825 66.511 78.6319L66.2861 79.4644C65.9755 80.6138 66.6924 81.7877 67.8874 82.0865L92.1198 88.1446C93.3147 88.4433 94.5352 87.7537 94.8457 86.6044L95.0707 85.7719C95.3813 84.6225 94.6643 83.4486 93.4694 83.1498Z" fill="#E21716"/>
<path d="M109.331 81.0848L121.853 69.04C122.726 68.2003 124.142 68.2003 125.015 69.04L125.647 69.6482C126.52 70.488 126.52 71.8495 125.647 72.6892L113.125 84.734C112.252 85.5737 110.837 85.5737 109.964 84.734L109.331 84.1258C108.458 83.286 108.458 81.9245 109.331 81.0848Z" fill="#E21716"/>
<path d="M103.94 120.343C111.998 118.331 117.847 114.163 117.002 111.032C116.157 107.902 108.94 106.995 100.882 109.007C92.823 111.018 86.9749 115.187 87.8194 118.317C88.6639 121.447 95.8813 122.354 103.94 120.343Z" fill="#E21716"/>
</svg>
