<svg width="63" height="138" viewBox="0 0 63 138" fill="none" xmlns="http://www.w3.org/2000/svg">
<g clip-path="url(#clip0_48_279)">
<path d="M26.5593 75.8472L36.6542 75.8472C37.7588 75.8472 38.6542 74.9517 38.6542 73.8472L38.6542 1.99984C38.6542 0.895271 37.7588 -0.000160296 36.6542 -0.000160392L26.5593 -0.000161275C25.4548 -0.000161371 24.5593 0.895262 24.5593 1.99984L24.5593 73.8472C24.5593 74.9517 25.4548 75.8472 26.5593 75.8472Z" fill="#DECA19"/>
<path fill-rule="evenodd" clip-rule="evenodd" d="M22.1856 126.114L6.08643 138L6.08643 114.415C2.52021 109.402 0.427112 103.295 0.427112 96.7053C0.427114 79.6587 14.4345 65.8397 31.7136 65.8397C48.9926 65.8397 63 79.6587 63 96.7053C63 101.523 61.8811 106.083 59.8857 110.146L58.622 129.678L48.5226 122.742C43.6675 125.799 37.9002 127.571 31.7136 127.571C28.3912 127.571 25.1897 127.06 22.1856 126.114Z" fill="#D62D2A"/>
<path d="M20.2881 88.0671C18.6369 88.0671 17.2983 89.3877 17.2983 91.0167C17.2983 92.6457 18.6369 93.9663 20.2881 93.9663C21.9394 93.9663 23.278 92.6457 23.278 91.0167C23.278 89.3877 21.9394 88.0671 20.2881 88.0671Z" fill="#880D0C"/>
<path d="M7.04747 90.174C5.39623 90.174 4.05764 91.4946 4.05764 93.1236C4.05764 94.7527 5.39623 96.0732 7.04747 96.0732C8.6987 96.0732 10.0373 94.7527 10.0373 93.1236C10.0373 91.4946 8.6987 90.174 7.04747 90.174Z" fill="#880D0C"/>
<path d="M18.3538 97.2647L29.9286 100.233C30.4993 100.379 31.0823 100.041 31.2306 99.478L31.3381 99.0702C31.4864 98.5071 31.144 97.932 30.5732 97.7856L18.9985 94.8177C18.4277 94.6714 17.8447 95.0092 17.6964 95.5723L17.589 95.9801C17.4406 96.5432 17.7831 97.1183 18.3538 97.2647Z" fill="#880D0C"/>
<path d="M10.7772 98.2762L4.79603 104.177C4.37903 104.588 3.70294 104.588 3.28594 104.177L2.98392 103.879C2.56692 103.468 2.56692 102.801 2.98392 102.389L8.96513 96.4885C9.38213 96.0771 10.0582 96.0771 10.4752 96.4885L10.7772 96.7864C11.1942 97.1978 11.1942 97.8648 10.7772 98.2762Z" fill="#880D0C"/>
<path d="M13.3526 79.0437C9.50334 80.0292 6.70996 82.0713 7.11336 83.6049C7.51677 85.1385 10.9642 85.5828 14.8134 84.5973C18.6626 83.6119 21.456 81.5698 21.0526 80.0362C20.6492 78.5026 17.2018 78.0583 13.3526 79.0437Z" fill="#880D0C"/>
<path d="M0.17888 83.4572L26.9522 87.4351L28.1898 79.328L1.41646 75.3501L0.17888 83.4572Z" fill="black"/>
<path d="M17.3807 83.116L17.7378 80.443L18.2961 80.5155L17.939 83.1885L17.3807 83.116ZM16.4539 81.8335L16.5113 81.404L17.7431 81.5643L17.6859 81.9939L16.4539 81.8335ZM16.1711 82.9586L16.2288 82.5271L17.5909 82.7043L17.5332 83.1358L16.1711 82.9586ZM15.6208 81.6224L15.0553 81.8871C14.9716 81.9273 14.9137 81.9688 14.8815 82.012C14.8492 82.0552 14.8291 82.1053 14.8214 82.1629C14.8138 82.2206 14.8285 82.2766 14.8652 82.3312C14.902 82.387 14.9594 82.4199 15.0376 82.4302C15.0935 82.4374 15.1422 82.4306 15.1841 82.41C15.2259 82.3906 15.2595 82.3613 15.2849 82.3221C15.309 82.2829 15.3246 82.2376 15.3314 82.1862C15.3389 82.1312 15.3314 82.0731 15.3094 82.0116C15.287 81.9515 15.2548 81.8862 15.2125 81.8161C15.17 81.747 15.1226 81.6717 15.0702 81.5902L13.9881 79.9553L14.5968 80.0343L15.4798 81.3595C15.5535 81.4787 15.6172 81.5873 15.671 81.685C15.7246 81.7842 15.7643 81.8791 15.7901 81.9696C15.816 82.06 15.8228 82.1506 15.8106 82.2412C15.7921 82.3807 15.7453 82.4985 15.6706 82.5948C15.5958 82.6921 15.4993 82.7623 15.3812 82.8054C15.2629 82.8499 15.1294 82.8623 14.9805 82.843C14.8402 82.8248 14.7226 82.7802 14.6273 82.7092C14.5319 82.6396 14.4624 82.5545 14.4191 82.4542C14.3745 82.3539 14.3595 82.248 14.3745 82.1365C14.3856 82.0533 14.4114 81.9783 14.4518 81.9113C14.4921 81.8456 14.5436 81.7863 14.6062 81.7335C14.6687 81.6816 14.7386 81.6355 14.8161 81.5944L15.4653 81.255C15.5168 81.2192 15.5572 81.1827 15.586 81.1454C15.615 81.1082 15.6362 81.0717 15.6498 81.0361C15.6633 81.0018 15.6723 80.968 15.6765 80.935C15.6861 80.864 15.6791 80.7984 15.6556 80.738C15.6321 80.6777 15.5945 80.628 15.5431 80.5888C15.4914 80.5498 15.4284 80.5254 15.3541 80.5157C15.2522 80.5024 15.1507 80.5117 15.0493 80.5433C14.9479 80.5749 14.8539 80.6269 14.7672 80.699C14.6805 80.7723 14.607 80.8631 14.5472 80.9712C14.4874 81.0791 14.4484 81.2017 14.43 81.3389L13.976 81.2796C13.9941 81.1427 14.0253 81.014 14.0691 80.8941C14.1126 80.7751 14.172 80.667 14.2468 80.5696C14.3215 80.4736 14.4146 80.3916 14.5259 80.324C14.534 80.3189 14.5457 80.3109 14.5611 80.3006C14.575 80.2911 14.5867 80.2839 14.5961 80.2789C14.7279 80.2003 14.8614 80.1459 14.9966 80.1162C15.1315 80.0878 15.2787 80.0838 15.4373 80.1044C15.6184 80.128 15.7711 80.1809 15.8952 80.2631C16.018 80.345 16.1077 80.4476 16.1645 80.5707C16.22 80.6937 16.238 80.8288 16.2183 80.9756C16.204 81.0833 16.1703 81.1741 16.1175 81.2483C16.0633 81.3233 15.9939 81.3903 15.9089 81.449C15.8241 81.5076 15.728 81.5656 15.6208 81.6224ZM12.7877 82.0666L13.2511 81.2209L13.6753 81.2761L12.9406 82.5385L12.6354 82.4987L12.7877 82.0666ZM12.5942 81.1355L12.8195 82.0706L12.8531 82.5271L12.5479 82.4873L12.1718 81.0805L12.5942 81.1355ZM11.0963 82.2985L11.4058 80.4504L11.8525 80.5085L11.6678 82.3729L11.0963 82.2985ZM12.0074 79.9441C11.9969 80.0225 11.961 80.0838 11.8995 80.128C11.8367 80.1733 11.7601 80.1902 11.6695 80.1784C11.5777 80.1666 11.5079 80.1308 11.4604 80.0709C11.4126 80.0124 11.394 79.9441 11.4045 79.8657C11.4147 79.7899 11.4506 79.7292 11.5121 79.6835C11.5738 79.638 11.6505 79.6213 11.7423 79.6331C11.8329 79.6449 11.9025 79.6807 11.9514 79.7408C11.9988 79.8004 12.0176 79.8683 12.0074 79.9441ZM9.14055 82.0442L8.58422 81.9718L8.82021 80.2058C8.84776 80.0001 8.91546 79.8326 9.02373 79.7035C9.13051 79.5743 9.26698 79.4844 9.4327 79.4336C9.59735 79.3828 9.78058 79.3706 9.98282 79.3969C10.1851 79.4233 10.3602 79.4821 10.5084 79.5735C10.6551 79.6649 10.7638 79.7867 10.8343 79.939C10.9035 80.0914 10.9244 80.2702 10.8971 80.4759L10.6609 82.2419L10.1026 82.1694L10.3388 80.4032C10.3548 80.2833 10.3487 80.1828 10.3202 80.1019C10.2921 80.021 10.2442 79.9582 10.177 79.9133C10.1086 79.8683 10.0247 79.8394 9.92538 79.8265C9.82372 79.8133 9.7351 79.8198 9.65971 79.8461C9.58304 79.8723 9.5209 79.9207 9.4737 79.9919C9.42501 80.0627 9.39276 80.1582 9.37674 80.278L9.14055 82.0442Z" fill="white"/>
</g>
<defs>
<clipPath id="clip0_48_279">
<rect width="63" height="138" fill="white" transform="translate(63 138) rotate(-180)"/>
</clipPath>
</defs>
</svg>
