<svg width="56" height="63" viewBox="0 0 56 63" fill="none" xmlns="http://www.w3.org/2000/svg">
<path fill-rule="evenodd" clip-rule="evenodd" d="M36.5271 10.3775L50.9352 1.20283e-09L50.9352 20.5906C54.1268 24.9675 56 30.2994 56 36.0526C56 50.9353 43.464 63 28 63C12.536 63 1.20211e-09 50.9353 8.50865e-10 36.0526C7.51596e-10 31.8464 1.00135 27.8651 2.78714 24.3178L3.91809 7.26569L12.9566 13.3207C17.3017 10.6518 22.4633 9.10511 28 9.10511C30.9734 9.10511 33.8385 9.55115 36.5271 10.3775Z" fill="#FE423F"/>
<path d="M38.2253 43.7207C39.7031 43.7207 40.9011 42.5677 40.9011 41.1455C40.9011 39.7233 39.7031 38.5703 38.2253 38.5703C36.7475 38.5703 35.5496 39.7233 35.5496 41.1455C35.5496 42.5677 36.7475 43.7207 38.2253 43.7207Z" fill="#E21716"/>
<path d="M50.0751 41.8808C51.5528 41.8808 52.7508 40.7279 52.7508 39.3056C52.7508 37.8834 51.5528 36.7305 50.0751 36.7305C48.5973 36.7305 47.3993 37.8834 47.3993 39.3056C47.3993 40.7279 48.5973 41.8808 50.0751 41.8808Z" fill="#E21716"/>
<path d="M39.9563 35.6907L29.5974 33.0995C29.0866 32.9717 28.5649 33.2667 28.4321 33.7583L28.3359 34.1144C28.2032 34.606 28.5096 35.1081 29.0205 35.2358L39.3794 37.827C39.8902 37.9548 40.4119 37.6598 40.5447 37.1682L40.6408 36.8121C40.7736 36.3205 40.4671 35.8184 39.9563 35.6907Z" fill="#E21716"/>
<path d="M46.7371 34.8074L52.09 29.6557C52.4632 29.2965 53.0683 29.2965 53.4415 29.6557L53.7118 29.9158C54.085 30.275 54.085 30.8573 53.7118 31.2165L48.3589 36.3682C47.9857 36.7274 47.3806 36.7274 47.0074 36.3682L46.7371 36.1081C46.3639 35.7489 46.3639 35.1666 46.7371 34.8074Z" fill="#E21716"/>
<path d="M44.4322 51.5984C47.8771 50.738 50.3771 48.9552 50.016 47.6163C49.655 46.2773 46.5697 45.8894 43.1248 46.7498C39.68 47.6102 37.18 49.393 37.541 50.7319C37.9021 52.0708 40.9874 52.4588 44.4322 51.5984Z" fill="#E21716"/>
</svg>
