<svg width="126" height="112" viewBox="0 0 126 112" fill="none" xmlns="http://www.w3.org/2000/svg">
<path fill-rule="evenodd" clip-rule="evenodd" d="M105.245 73.0542L126 101.87L84.8188 101.87C76.065 108.254 65.4012 112 53.8949 112C24.1295 112 -3.8018e-06 86.928 -2.44916e-06 56C-1.09653e-06 25.0721 24.1295 -4.4505e-06 53.8949 -3.15011e-06C62.3073 -2.78259e-06 70.2697 2.0027 77.3644 5.57427L111.469 7.83618L99.3586 25.9132C104.696 34.6034 107.79 44.9265 107.79 56C107.79 61.9467 106.898 67.677 105.245 73.0542Z" fill="#FE423F"/>
<path d="M38.8118 76.4504C38.8118 79.406 41.1177 81.8019 43.9622 81.8019C46.8067 81.8019 49.1125 79.406 49.1125 76.4504C49.1125 73.4948 46.8067 71.0989 43.9622 71.0989C41.1177 71.0989 38.8118 73.4948 38.8118 76.4504Z" fill="#E21716"/>
<path d="M42.4905 100.15C42.4905 103.106 44.7964 105.502 47.6409 105.502C50.4854 105.502 52.7913 103.106 52.7913 100.15C52.7913 97.1945 50.4854 94.7986 47.6409 94.7986C44.7964 94.7986 42.4905 97.1945 42.4905 100.15Z" fill="#E21716"/>
<path d="M54.8719 79.9126L60.0541 59.1948C60.3097 58.1732 59.7198 57.1297 58.7366 56.8642L58.0245 56.6719C57.0412 56.4064 56.037 57.0193 55.7815 58.0409L50.5992 78.7587C50.3437 79.7803 50.9336 80.8238 51.9168 81.0893L52.6289 81.2816C53.6121 81.5471 54.6163 80.9342 54.8719 79.9126Z" fill="#E21716"/>
<path d="M56.6384 93.4742L66.9418 104.18C67.6601 104.926 67.6601 106.137 66.9418 106.883L66.4215 107.424C65.7032 108.17 64.5385 108.17 63.8202 107.424L53.5168 96.7177C52.7985 95.9713 52.7985 94.7612 53.5168 94.0148L54.0371 93.4742C54.7554 92.7278 55.9201 92.7278 56.6384 93.4742Z" fill="#E21716"/>
<path d="M23.0557 88.8647C24.7764 95.7545 28.3421 100.754 31.0199 100.032C33.6977 99.3103 34.4736 93.1397 32.7529 86.2499C31.0321 79.3602 27.4664 74.3602 24.7886 75.0823C22.1108 75.8044 21.3349 81.975 23.0557 88.8647Z" fill="#E21716"/>
</svg>
