<svg width="131" height="289" viewBox="0 0 131 289" fill="none" xmlns="http://www.w3.org/2000/svg">
<path d="M78.4778 134.178H52.9692C51.8647 134.178 50.9692 135.074 50.9692 136.178V287C50.9692 288.104 51.8647 289 52.9692 289H78.4778C79.5823 289 80.4778 288.104 80.4778 287V136.178C80.4778 135.074 79.5823 134.178 78.4778 134.178Z" fill="#DECA19"/>
<path fill-rule="evenodd" clip-rule="evenodd" d="M85.4473 24.2628L119.152 0V48.1413C126.618 58.3746 131 70.8407 131 84.2917C131 119.088 101.675 147.295 65.5 147.295C29.3254 147.295 0 119.088 0 84.2917C0 74.4575 2.34244 65.1493 6.51991 56.8556L9.16553 16.9874L30.3092 31.1441C40.4736 24.9041 52.548 21.2879 65.5 21.2879C72.4555 21.2879 79.158 22.3308 85.4473 24.2628Z" fill="#FE423F"/>
<path d="M89.4198 101.924C92.8767 101.924 95.6792 99.2284 95.6792 95.9032C95.6792 92.5779 92.8767 89.8823 89.4198 89.8823C85.9628 89.8823 83.1604 92.5779 83.1604 95.9032C83.1604 99.2284 85.9628 101.924 89.4198 101.924Z" fill="#E21716"/>
<path d="M117.14 97.6235C120.597 97.6235 123.399 94.9278 123.399 91.6026C123.399 88.2774 120.597 85.5818 117.14 85.5818C113.683 85.5818 110.881 88.2774 110.881 91.6026C110.881 94.9278 113.683 97.6235 117.14 97.6235Z" fill="#E21716"/>
<path d="M93.4693 83.1496L69.2369 77.0914C68.0419 76.7927 66.8215 77.4823 66.5109 78.6317L66.286 79.4642C65.9754 80.6135 66.6923 81.7875 67.8872 82.0862L92.1197 88.1444C93.3146 88.4431 94.5351 87.7535 94.8456 86.6041L95.0706 85.7716C95.3811 84.6223 94.6642 83.4483 93.4693 83.1496Z" fill="#E21716"/>
<path d="M109.331 81.0846L121.853 69.0398C122.726 68.2 124.142 68.2 125.015 69.0398L125.647 69.648C126.52 70.4877 126.52 71.8492 125.647 72.689L113.125 84.7337C112.252 85.5735 110.837 85.5735 109.964 84.7337L109.331 84.1255C108.458 83.2858 108.458 81.9243 109.331 81.0846Z" fill="#E21716"/>
<path d="M103.94 120.343C111.999 118.332 117.847 114.163 117.002 111.033C116.158 107.902 108.94 106.995 100.882 109.007C92.823 111.018 86.9749 115.187 87.8195 118.317C88.664 121.448 95.8814 122.355 103.94 120.343Z" fill="#E21716"/>
</svg>
