<svg width="83" height="96" viewBox="0 0 83 96" fill="none" xmlns="http://www.w3.org/2000/svg">
<path fill-rule="evenodd" clip-rule="evenodd" d="M54.1384 15.8133L75.4932 1.31996e-05L75.4932 31.3762C80.2236 38.0457 83 46.1705 83 54.9372C83 77.6156 64.4199 96 41.5 96C18.5802 96 -1.35707e-05 77.6156 -9.60553e-06 54.9372C-8.48487e-06 48.5278 1.48413 42.4611 4.13093 37.0557L5.80717 11.0715L19.2035 20.2982C25.6436 16.2313 33.2938 13.8745 41.5 13.8745C45.9069 13.8745 50.1535 14.5541 54.1384 15.8133Z" fill="#F0CA69"/>
<path d="M56.6557 65.71C58.846 65.71 60.6216 63.9531 60.6216 61.7859C60.6216 59.6187 58.846 57.8618 56.6557 57.8618C54.4654 57.8618 52.6898 59.6187 52.6898 61.7859C52.6898 63.9531 54.4654 65.71 56.6557 65.71Z" fill="#E29D16"/>
<path d="M74.2183 62.9068C76.4086 62.9068 78.1842 61.1499 78.1842 58.9827C78.1842 56.8155 76.4086 55.0586 74.2183 55.0586C72.028 55.0586 70.2524 56.8155 70.2524 58.9827C70.2524 61.1499 72.028 62.9068 74.2183 62.9068Z" fill="#E29D16"/>
<path d="M74.1315 71.6462C74.6663 73.6865 70.9611 76.4031 65.8553 77.7143C60.7495 79.0252 56.1766 78.434 55.6415 76.3938C55.1066 74.3536 60.1898 76.13 65.2955 74.8191C70.4013 73.5082 73.5964 69.606 74.1315 71.6462Z" fill="#E29D16"/>
<path d="M53.057 58.0988C52.2689 58.7064 51.0919 58.5708 50.797 57.6262C50.7321 57.4191 50.6814 57.2069 50.6454 56.9911C50.5097 56.1827 50.5825 55.3483 50.8573 54.5615C51.1318 53.7747 51.5998 53.0603 52.2196 52.4812C52.8394 51.9018 53.5921 51.4758 54.411 51.2409C55.2297 51.006 56.0892 50.9693 56.9135 51.1338C57.7375 51.2986 58.501 51.6599 59.1361 52.1855C59.7712 52.711 60.2584 53.3848 60.5544 54.1469C60.6425 54.3743 60.7131 54.6072 60.7655 54.844C60.9731 55.7819 60.0675 56.4781 59.1024 56.3803L57.9843 56.2674C57.5829 56.2267 57.3118 55.848 57.167 55.4752C57.0789 55.2482 56.9336 55.0475 56.7444 54.8908C56.5551 54.7342 56.3277 54.6265 56.0821 54.5775C55.8365 54.5284 55.5801 54.5394 55.3362 54.6094C55.0923 54.6792 54.868 54.8062 54.6833 54.9789C54.4986 55.1515 54.3592 55.3645 54.2773 55.5989C54.1955 55.8335 54.1736 56.0821 54.2142 56.3228C54.2802 56.7175 54.2484 57.1805 53.9295 57.4264L53.057 58.0988Z" fill="#E29D16"/>
<path d="M70.6204 55.0153C69.8324 55.623 68.6554 55.4873 68.3605 54.5427C68.2956 54.3356 68.2449 54.1234 68.2089 53.9076C68.0732 53.0992 68.146 52.2648 68.4208 51.478C68.6953 50.6912 69.1633 49.9768 69.7831 49.3977C70.4029 48.8183 71.1555 48.3923 71.9745 48.1574C72.7932 47.9225 73.6526 47.8858 74.4769 48.0503C75.301 48.2151 76.0644 48.5764 76.6995 49.102C77.3346 49.6275 77.8219 50.3013 78.1179 51.0635C78.206 51.2908 78.2765 51.5237 78.3289 51.7605C78.5366 52.6984 77.6309 53.3946 76.6658 53.2968L75.5477 53.1839C75.1463 53.1432 74.8752 52.7646 74.7305 52.3918C74.6424 52.1647 74.4971 51.964 74.3078 51.8074C74.1186 51.6507 73.8911 51.543 73.6455 51.494C73.3999 51.4449 73.1436 51.4559 72.8997 51.5259C72.6558 51.5957 72.4314 51.7227 72.2467 51.8954C72.062 52.068 71.9227 52.281 71.8408 52.5154C71.7589 52.75 71.7371 52.9986 71.7776 53.2394C71.8436 53.634 71.8119 54.0971 71.4929 54.3429L70.6204 55.0153Z" fill="#E29D16"/>
</svg>
