<svg width="232" height="200" viewBox="0 0 232 200" fill="none" xmlns="http://www.w3.org/2000/svg">
<path fill-rule="evenodd" clip-rule="evenodd" d="M38.1929 69.5461L2.16927e-06 18.0887L75.7808 18.0887C91.8893 6.6901 111.513 -6.12081e-06 132.686 -5.86831e-06C187.46 -5.21514e-06 231.862 44.7713 231.862 100C231.862 155.228 187.46 200 132.686 200C117.206 200 102.554 196.424 89.4982 190.046L26.7403 186.007L49.0249 153.726C39.2024 138.208 33.51 119.774 33.51 100C33.51 89.3809 35.1516 79.1481 38.1929 69.5461Z" fill="#F0CA69"/>
<path d="M160.442 63.4813C160.442 58.2035 156.199 53.925 150.964 53.925C145.73 53.925 141.487 58.2035 141.487 63.4813C141.487 68.7591 145.73 73.0376 150.964 73.0376C156.199 73.0376 160.442 68.7591 160.442 63.4813Z" fill="#E29D16"/>
<path d="M153.672 21.1605C153.672 15.8827 149.429 11.6042 144.195 11.6042C138.96 11.6042 134.717 15.8827 134.717 21.1605C134.717 26.4383 138.96 30.7168 144.195 30.7168C149.429 30.7168 153.672 26.4383 153.672 21.1605Z" fill="#E29D16"/>
<path d="M174.78 21.3707C179.708 20.082 186.269 29.0103 189.436 41.3134C192.602 53.6165 191.174 64.6356 186.247 65.925C181.319 67.2138 185.61 54.9653 182.444 42.6622C179.277 30.3591 169.853 22.6602 174.78 21.3707Z" fill="#E29D16"/>
<path d="M142.06 72.1515C143.527 74.0505 143.2 76.8866 140.918 77.5972C140.418 77.7535 139.905 77.8757 139.384 77.9624C137.432 78.2894 135.416 78.114 133.516 77.4518C131.616 76.7904 129.89 75.6628 128.492 74.1693C127.092 72.6757 126.063 70.8621 125.496 68.8887C124.929 66.916 124.84 64.845 125.238 62.8587C125.636 60.873 126.508 59.0334 127.778 57.503C129.047 55.9727 130.674 54.7986 132.515 54.0853C133.064 53.873 133.627 53.703 134.199 53.5768C136.464 53.0764 138.145 55.2587 137.909 57.5843L137.636 60.2785C137.538 61.2457 136.623 61.8989 135.723 62.2477C135.175 62.46 134.69 62.8102 134.312 63.2662C133.933 63.7221 133.673 64.2703 133.555 64.8621C133.436 65.4539 133.463 66.0716 133.632 66.6594C133.801 67.2471 134.107 67.7877 134.524 68.2327C134.941 68.6778 135.456 69.0136 136.022 69.2109C136.588 69.4082 137.189 69.4607 137.77 69.3631C138.723 69.2041 139.842 69.2805 140.436 70.0491L142.06 72.1515Z" fill="#E29D16"/>
<path d="M134.613 29.8307C136.081 31.7297 135.753 34.5659 133.472 35.2764C132.971 35.4327 132.459 35.5549 131.938 35.6416C129.985 35.9686 127.97 35.7932 126.07 35.131C124.169 34.4696 122.444 33.342 121.045 31.8485C119.646 30.3549 118.617 28.5413 118.049 26.5679C117.482 24.5952 117.393 22.5243 117.791 20.5379C118.189 18.5523 119.062 16.7127 120.331 15.1823C121.6 13.6519 123.228 12.4778 125.068 11.7645C125.617 11.5522 126.18 11.3823 126.752 11.256C129.017 10.7557 130.699 12.9379 130.462 15.2635L130.19 17.9577C130.091 18.9249 129.177 19.5782 128.276 19.927C127.728 20.1393 127.243 20.4894 126.865 20.9454C126.487 21.4014 126.227 21.9495 126.108 22.5413C125.99 23.1331 126.016 23.7509 126.185 24.3386C126.354 24.9263 126.661 25.4669 127.078 25.912C127.495 26.357 128.009 26.6928 128.575 26.8901C129.142 27.0874 129.742 27.1399 130.324 27.0423C131.277 26.8833 132.395 26.9597 132.989 27.7283L134.613 29.8307Z" fill="#E29D16"/>
</svg>
